<svg xmlns="http://www.w3.org/2000/svg" id="stateCOA25" width="500" height="500" viewBox="0 10 200 200">
        <defs><clipPath id="heater_stateCOA25"><path d="m25,25 h150 v50 a150,150,0,0,1,-75,125 a150,150,0,0,1,-75,-125 z"/></clipPath><clipPath id="divisionClip_stateCOA25"><polygon points="0,0 15,0 100,200 185,0 200,0 200,200 0,200"/></clipPath><pattern id="palyBendy-argent-gules" width="0.6258" height="0.3576" viewBox="0 0 175 100"><rect y="0" x="0" width="175" height="100" fill="#d7374a"/><g fill="#fafafa"><path d="m0 20 35 30v50l-35-30z"/><path d="m35 0 35 30v50l-35-30z"/><path d="m70 0h23l12 10v50l-35-30z"/><path d="m70 80 23 20h-23z"/><path d="m105 60 35 30v10h-35z"/><path d="m105 0h35v40l-35-30z"/><path d="m 140,40 35,30 v 30 h -23 l -12,-10z"/><path d="M 175,0 V 20 L 152,0 Z"/></g></pattern><radialGradient id="backlight_stateCOA25" cx="100%" cy="100%" r="150%"><stop stop-color="#fff" stop-opacity=".3" offset="0"/><stop stop-color="#fff" stop-opacity=".15" offset=".25"/><stop stop-color="#000" stop-opacity="0" offset="1"/></radialGradient><style>
      g.secondary,path.secondary {fill: var(--secondary);}
      g.tertiary,path.tertiary {fill: var(--tertiary);}
    </style></defs>
        <g clip-path="url(#heater_stateCOA25)"><rect x="0" y="0" width="200" height="200" fill="url(#palyBendy-argent-gules)"/><g clip-path="url(#divisionClip_stateCOA25)"><rect x="0" y="0" width="200" height="200" fill="#377cd7"/></g></g>
        <path d="m25,25 h150 v50 a150,150,0,0,1,-75,125 a150,150,0,0,1,-75,-125 z" fill="url(#backlight_stateCOA25)" stroke="#333"/></svg>