<svg xmlns="http://www.w3.org/2000/svg" id="stateCOA4" width="500" height="500" viewBox="0 10 200 200">
        <defs><clipPath id="heater_stateCOA4"><path d="m25,25 h150 v50 a150,150,0,0,1,-75,125 a150,150,0,0,1,-75,-125 z"/></clipPath><g id="inescutcheon_stateCOA4"><path transform="translate(66 66) scale(.34)" d="m25,25 h150 v50 a150,150,0,0,1,-75,125 a150,150,0,0,1,-75,-125 z"/></g><radialGradient id="backlight_stateCOA4" cx="100%" cy="100%" r="150%"><stop stop-color="#fff" stop-opacity=".3" offset="0"/><stop stop-color="#fff" stop-opacity=".15" offset=".25"/><stop stop-color="#000" stop-opacity="0" offset="1"/></radialGradient><style>
      g.secondary,path.secondary {fill: var(--secondary);}
      g.tertiary,path.tertiary {fill: var(--tertiary);}
    </style></defs>
        <g clip-path="url(#heater_stateCOA4)"><rect x="0" y="0" width="200" height="200" fill="#d7374a"/><g fill="#ffe066" style="--secondary: #ffe066; --tertiary: #ffe066" stroke="#000"><use href="#inescutcheon_stateCOA4" transform="translate(-7.4999999999999964 -7.4999999999999964) scale(0.7)"/><use href="#inescutcheon_stateCOA4" transform="translate(67.5 -7.4999999999999964) scale(0.7)"/><use href="#inescutcheon_stateCOA4" transform="translate(30.000000000000004 72.5) scale(0.7)"/></g></g>
        <path d="m25,25 h150 v50 a150,150,0,0,1,-75,125 a150,150,0,0,1,-75,-125 z" fill="url(#backlight_stateCOA4)" stroke="#333"/></svg>