<svg xmlns="http://www.w3.org/2000/svg" id="stateCOA27" width="500" height="500" viewBox="0 10 200 200">
        <defs><clipPath id="spanish_stateCOA27"><path d="m25,25 h150 v100 a75,75,0,0,1,-150,0 z"/></clipPath><clipPath id="divisionClip_stateCOA27"><rect x="0" y="100" width="200" height="100"/></clipPath><pattern id="vairInPale-azure-argent-small" width="0.1" height="0.1" viewBox="0 0 25 25"><rect width="25" height="25" fill="#377cd7"/><path d="m12.5,0 l6.25,6.25 v12.5 l6.25,6.25 h-25 l6.25,-6.25 v-12.5 z" fill="#fafafa" stroke="#000" stroke-width=".2"/></pattern><radialGradient id="backlight_stateCOA27" cx="100%" cy="100%" r="150%"><stop stop-color="#fff" stop-opacity=".3" offset="0"/><stop stop-color="#fff" stop-opacity=".15" offset=".25"/><stop stop-color="#000" stop-opacity="0" offset="1"/></radialGradient><style>
      g.secondary,path.secondary {fill: var(--secondary);}
      g.tertiary,path.tertiary {fill: var(--tertiary);}
    </style></defs>
        <g clip-path="url(#spanish_stateCOA27)"><rect x="0" y="0" width="200" height="200" fill="url(#vairInPale-azure-argent-small)"/><g clip-path="url(#divisionClip_stateCOA27)"><rect x="0" y="0" width="200" height="200" fill="#ffe066"/></g><g fill="#d7374a" stroke="none"><polygon points="35,0 200,165 200,200 165,200 0,35 0,0"/></g></g>
        <path d="m25,25 h150 v100 a75,75,0,0,1,-150,0 z" fill="url(#backlight_stateCOA27)" stroke="#333"/></svg>